<svg width="346" height="83" viewBox="0 0 346 83" fill="none" xmlns="http://www.w3.org/2000/svg">
<path d="M54.8233 52.9088L50.738 50.4747L48.3872 54.6334C45.5494 59.6087 38.7324 61.468 33.749 58.5557L29.6937 56.1135L27.2831 60.2882C25.8601 62.7606 23.5498 64.5559 20.7958 65.2939C18.6105 65.8794 16.417 65.7157 14.4302 65.0064L18.1959 79.0601C18.4126 79.8687 18.9357 80.5596 19.6503 80.9809C20.3649 81.4021 21.2123 81.5193 22.0063 81.3066L69.9023 68.4729C70.6962 68.2601 71.3715 67.7349 71.7797 67.0128C72.1879 66.2907 72.2956 65.4308 72.0789 64.6222L68.3132 50.5685C66.9473 52.1761 65.1295 53.4147 62.9443 54.0002C60.1902 54.7382 57.2918 54.3385 54.8233 52.9088Z" fill="#FABF2B"/>
<path d="M32.9469 25.5101C36.2697 24.6198 38.1987 21.1623 37.3002 17.8089C36.9898 16.6504 36.4045 15.6637 35.5907 14.9015L28.0458 7.21895L25.3529 17.6447C25.0292 18.7117 25.0158 19.8589 25.3262 21.0173C25.7595 22.6343 26.8058 24.0161 28.2349 24.8587C29.6641 25.7013 31.359 25.9356 32.9469 25.5101ZM53.3584 29.8431L38.3909 33.8536L36.7572 27.7566L30.7702 29.3608L32.4039 35.4579L17.4364 39.4684C15.0547 40.1066 13.0286 41.6822 11.804 43.8486C10.5794 46.015 10.2566 48.5947 10.9065 51.0203L12.1644 55.715C13.0466 59.0074 16.3997 60.9843 19.6327 60.118C21.2492 59.6849 22.5826 58.6741 23.2982 57.2735L28.0242 49.0475L36.0804 53.8485C38.9001 55.5108 42.7617 54.4761 44.3724 51.6266L48.9787 43.4328L57.1546 48.2016C58.5046 49.0489 60.1647 49.2575 61.7513 48.8324C64.9843 47.9661 66.9296 44.5695 66.0474 41.2771L64.7895 36.5824C64.1396 34.1568 62.5701 32.0841 60.4263 30.8203C58.2826 29.5564 55.7402 29.2049 53.3584 29.8431Z" fill="white"/>
<path d="M32.9469 25.5101C36.2697 24.6198 38.1987 21.1623 37.3002 17.8089C36.9898 16.6504 36.4045 15.6637 35.5907 14.9015L28.0458 7.21895L25.3529 17.6447C25.0292 18.7117 25.0158 19.8589 25.3262 21.0173C25.7595 22.6343 26.8058 24.0161 28.2349 24.8587C29.6641 25.7013 31.359 25.9356 32.9469 25.5101ZM53.3584 29.8431L38.3909 33.8536L36.7572 27.7566L30.7702 29.3608L32.4039 35.4579L17.4364 39.4684C15.0547 40.1066 13.0286 41.6822 11.804 43.8486C10.5794 46.015 10.2566 48.5947 10.9065 51.0203L12.1644 55.715C13.0466 59.0074 16.3997 60.9843 19.6327 60.118C21.2492 59.6849 22.5826 58.6741 23.2982 57.2735L28.0242 49.0475L36.0804 53.8485C38.9001 55.5108 42.7617 54.4761 44.3724 51.6266L48.9787 43.4328L57.1546 48.2016C58.5046 49.0489 60.1647 49.2575 61.7513 48.8324C64.9843 47.9661 66.9296 44.5695 66.0474 41.2771L64.7895 36.5824C64.1396 34.1568 62.5701 32.0841 60.4263 30.8203C58.2826 29.5564 55.7402 29.2049 53.3584 29.8431Z" fill="white"/>
<path d="M32.9469 25.5101C36.2697 24.6198 38.1987 21.1623 37.3002 17.8089C36.9898 16.6504 36.4045 15.6637 35.5907 14.9015L28.0458 7.21895L25.3529 17.6447C25.0292 18.7117 25.0158 19.8589 25.3262 21.0173C25.7595 22.6343 26.8058 24.0161 28.2349 24.8587C29.6641 25.7013 31.359 25.9356 32.9469 25.5101Z" fill="#F937C2"/>
<path d="M32.9469 25.5101C36.2697 24.6198 38.1987 21.1623 37.3002 17.8089C36.9898 16.6504 36.4045 15.6637 35.5907 14.9015L28.0458 7.21895L25.3529 17.6447C25.0292 18.7117 25.0158 19.8589 25.3262 21.0173C25.7595 22.6343 26.8058 24.0161 28.2349 24.8587C29.6641 25.7013 31.359 25.9356 32.9469 25.5101Z" fill="#F937C2"/>
<path d="M94.1614 27.6541L98.704 41.3928H98.883L103.417 27.6541H106.894L100.741 45.1087H96.8375L90.6927 27.6541H94.1614ZM111.465 45.3729C110.635 45.3729 109.888 45.2252 109.223 44.9297C108.564 44.6286 108.041 44.1854 107.655 43.6002C107.274 43.0149 107.084 42.2933 107.084 41.4354C107.084 40.6967 107.22 40.0859 107.493 39.603C107.766 39.12 108.138 38.7337 108.61 38.4439C109.081 38.1541 109.612 37.9354 110.203 37.7877C110.8 37.6342 111.416 37.5234 112.053 37.4553C112.82 37.3757 113.442 37.3047 113.919 37.2422C114.396 37.174 114.743 37.0717 114.959 36.9354C115.181 36.7933 115.291 36.5746 115.291 36.2791V36.228C115.291 35.5859 115.101 35.0888 114.72 34.7365C114.34 34.3842 113.791 34.2081 113.075 34.2081C112.32 34.2081 111.72 34.3729 111.277 34.7024C110.84 35.032 110.544 35.4212 110.391 35.87L107.51 35.4609C107.737 34.6655 108.112 34.0007 108.635 33.4666C109.158 32.9269 109.797 32.5234 110.553 32.2564C111.308 31.9837 112.144 31.8473 113.058 31.8473C113.689 31.8473 114.317 31.9212 114.942 32.0689C115.567 32.2166 116.138 32.4609 116.655 32.8019C117.172 33.1371 117.587 33.5945 117.899 34.174C118.218 34.7536 118.377 35.478 118.377 36.3473V45.1087H115.411V43.3104H115.308C115.121 43.674 114.857 44.0149 114.516 44.3331C114.181 44.6456 113.757 44.8984 113.246 45.0916C112.74 45.2791 112.146 45.3729 111.465 45.3729ZM112.266 43.1058C112.885 43.1058 113.422 42.9837 113.877 42.7394C114.331 42.4894 114.681 42.1598 114.925 41.7507C115.175 41.3416 115.3 40.8956 115.3 40.4127V38.87C115.203 38.9496 115.039 39.0234 114.806 39.0916C114.578 39.1598 114.323 39.2195 114.039 39.2706C113.754 39.3217 113.473 39.3672 113.195 39.407C112.916 39.4467 112.675 39.4808 112.47 39.5092C112.01 39.5717 111.598 39.674 111.235 39.8161C110.871 39.9581 110.584 40.157 110.374 40.4127C110.164 40.6627 110.058 40.9865 110.058 41.3842C110.058 41.9524 110.266 42.3814 110.681 42.6712C111.095 42.9609 111.624 43.1058 112.266 43.1058ZM121.479 45.1087V32.0178H124.564V45.1087H121.479ZM123.03 30.1598C122.541 30.1598 122.121 29.9979 121.769 29.674C121.416 29.3445 121.24 28.9496 121.24 28.4894C121.24 28.0234 121.416 27.6286 121.769 27.3047C122.121 26.9751 122.541 26.8104 123.03 26.8104C123.524 26.8104 123.945 26.9751 124.291 27.3047C124.644 27.6286 124.82 28.0234 124.82 28.4894C124.82 28.9496 124.644 29.3445 124.291 29.674C123.945 29.9979 123.524 30.1598 123.03 30.1598ZM127.737 45.1087V32.0178H130.686V34.2422H130.839C131.112 33.4922 131.563 32.907 132.194 32.4865C132.825 32.0604 133.578 31.8473 134.453 31.8473C135.339 31.8473 136.086 32.0632 136.694 32.495C137.308 32.9212 137.74 33.5036 137.99 34.2422H138.126C138.416 33.5149 138.904 32.9354 139.592 32.5036C140.285 32.0661 141.106 31.8473 142.055 31.8473C143.259 31.8473 144.242 32.228 145.004 32.9894C145.765 33.7507 146.146 34.8615 146.146 36.3217V45.1087H143.052V36.799C143.052 35.9865 142.836 35.3928 142.404 35.0178C141.972 34.6371 141.444 34.4467 140.819 34.4467C140.075 34.4467 139.492 34.6797 139.072 35.1456C138.657 35.6058 138.45 36.2053 138.45 36.9439V45.1087H135.424V36.6712C135.424 35.995 135.22 35.4553 134.811 35.0519C134.407 34.6484 133.879 34.4467 133.225 34.4467C132.782 34.4467 132.379 34.5604 132.015 34.7877C131.651 35.0092 131.362 35.3246 131.146 35.7337C130.93 36.1371 130.822 36.6087 130.822 37.1484V45.1087H127.737ZM154.986 45.3644C153.708 45.3644 152.6 45.0831 151.662 44.5206C150.725 43.9581 149.997 43.1712 149.48 42.1598C148.969 41.1484 148.713 39.9666 148.713 38.6144C148.713 37.2621 148.969 36.0774 149.48 35.0604C149.997 34.0433 150.725 33.2536 151.662 32.6911C152.6 32.1286 153.708 31.8473 154.986 31.8473C156.264 31.8473 157.372 32.1286 158.31 32.6911C159.247 33.2536 159.972 34.0433 160.483 35.0604C161 36.0774 161.259 37.2621 161.259 38.6144C161.259 39.9666 161 41.1484 160.483 42.1598C159.972 43.1712 159.247 43.9581 158.31 44.5206C157.372 45.0831 156.264 45.3644 154.986 45.3644ZM155.003 42.8928C155.696 42.8928 156.276 42.7024 156.742 42.3217C157.208 41.9354 157.554 41.4183 157.781 40.7706C158.014 40.1229 158.131 39.4013 158.131 38.6058C158.131 37.8047 158.014 37.0803 157.781 36.4325C157.554 35.7791 157.208 35.2592 156.742 34.8729C156.276 34.4865 155.696 34.2933 155.003 34.2933C154.293 34.2933 153.702 34.4865 153.23 34.8729C152.764 35.2592 152.415 35.7791 152.182 36.4325C151.955 37.0803 151.841 37.8047 151.841 38.6058C151.841 39.4013 151.955 40.1229 152.182 40.7706C152.415 41.4183 152.764 41.9354 153.23 42.3217C153.702 42.7024 154.293 42.8928 155.003 42.8928ZM169.967 45.1087V27.6541H176.649C177.91 27.6541 178.958 27.853 179.794 28.2507C180.634 28.6428 181.262 29.1797 181.677 29.8615C182.097 30.5433 182.308 31.3161 182.308 32.1797C182.308 32.8899 182.171 33.4979 181.899 34.0036C181.626 34.5036 181.259 34.9098 180.799 35.2223C180.339 35.5348 179.825 35.7592 179.257 35.8956V36.0661C179.876 36.1001 180.47 36.2905 181.038 36.6371C181.612 36.978 182.08 37.4609 182.444 38.0859C182.808 38.7109 182.99 39.4666 182.99 40.353C182.99 41.2564 182.771 42.0689 182.333 42.7905C181.896 43.5064 181.237 44.0717 180.356 44.4865C179.475 44.9013 178.367 45.1087 177.032 45.1087H169.967ZM173.129 42.4666H176.529C177.677 42.4666 178.504 42.2479 179.009 41.8104C179.521 41.3672 179.776 40.799 179.776 40.1058C179.776 39.5888 179.649 39.1229 179.393 38.7081C179.137 38.2877 178.774 37.9581 178.302 37.7195C177.83 37.4752 177.268 37.353 176.615 37.353H173.129V42.4666ZM173.129 35.0774H176.257C176.802 35.0774 177.294 34.978 177.731 34.7791C178.169 34.5746 178.512 34.2876 178.762 33.9183C179.018 33.5433 179.146 33.1002 179.146 32.5888C179.146 31.9126 178.907 31.3558 178.43 30.9183C177.958 30.4808 177.257 30.2621 176.325 30.2621H173.129V35.0774ZM185.604 45.1087V32.0178H188.689V45.1087H185.604ZM187.155 30.1598C186.666 30.1598 186.246 29.9979 185.894 29.674C185.541 29.3445 185.365 28.9496 185.365 28.4894C185.365 28.0234 185.541 27.6286 185.894 27.3047C186.246 26.9751 186.666 26.8104 187.155 26.8104C187.649 26.8104 188.07 26.9751 188.416 27.3047C188.769 27.6286 188.945 28.0234 188.945 28.4894C188.945 28.9496 188.769 29.3445 188.416 29.674C188.07 29.9979 187.649 30.1598 187.155 30.1598ZM191.862 45.1087V32.0178H194.853V34.1996H194.99C195.228 33.4439 195.637 32.8615 196.217 32.4524C196.802 32.0377 197.47 31.8303 198.22 31.8303C198.39 31.8303 198.58 31.8388 198.791 31.8558C199.007 31.8672 199.186 31.8871 199.328 31.9155V34.7536C199.197 34.7081 198.99 34.6683 198.705 34.6342C198.427 34.5945 198.157 34.5746 197.896 34.5746C197.333 34.5746 196.828 34.6967 196.379 34.9411C195.936 35.1797 195.586 35.5121 195.33 35.9382C195.075 36.3644 194.947 36.8558 194.947 37.4127V45.1087H191.862ZM208.617 32.0178V34.4041H201.092V32.0178H208.617ZM202.95 28.8814H206.035V41.1712C206.035 41.5859 206.097 41.9041 206.222 42.1257C206.353 42.3416 206.524 42.4894 206.734 42.5689C206.944 42.6484 207.177 42.6882 207.433 42.6882C207.626 42.6882 207.802 42.674 207.961 42.6456C208.126 42.6172 208.251 42.5916 208.336 42.5689L208.856 44.9808C208.691 45.0377 208.455 45.1002 208.149 45.1683C207.847 45.2365 207.478 45.2763 207.041 45.2877C206.268 45.3104 205.572 45.1939 204.953 44.9382C204.333 44.6769 203.842 44.2734 203.478 43.728C203.12 43.1825 202.944 42.5007 202.95 41.6825V28.8814ZM214.564 37.4382V45.1087H211.479V27.6541H214.496V34.2422H214.649C214.956 33.5036 215.431 32.9212 216.073 32.495C216.72 32.0632 217.544 31.8473 218.544 31.8473C219.453 31.8473 220.246 32.0377 220.922 32.4183C221.598 32.799 222.121 33.3558 222.49 34.0888C222.865 34.8217 223.053 35.7166 223.053 36.7734V45.1087H219.968V37.2507C219.968 36.37 219.74 35.6854 219.286 35.1967C218.837 34.7024 218.206 34.4553 217.394 34.4553C216.848 34.4553 216.36 34.5746 215.928 34.8132C215.502 35.0462 215.166 35.3842 214.922 35.8274C214.683 36.2706 214.564 36.8075 214.564 37.4382ZM231.056 45.3388C230.027 45.3388 229.107 45.0746 228.294 44.5462C227.482 44.0178 226.84 43.2507 226.368 42.245C225.896 41.2394 225.661 40.0178 225.661 38.5803C225.661 37.1257 225.899 35.8984 226.377 34.8984C226.86 33.8928 227.51 33.1342 228.328 32.6229C229.146 32.1058 230.058 31.8473 231.064 31.8473C231.831 31.8473 232.462 31.978 232.956 32.2394C233.45 32.495 233.843 32.8047 234.132 33.1683C234.422 33.5263 234.646 33.8644 234.806 34.1825H234.933V27.6541H238.027V45.1087H234.993V43.0462H234.806C234.646 43.3644 234.416 43.7024 234.115 44.0604C233.814 44.4127 233.416 44.7138 232.922 44.9638C232.428 45.2138 231.806 45.3388 231.056 45.3388ZM231.916 42.8075C232.57 42.8075 233.127 42.6314 233.587 42.2791C234.047 41.9212 234.396 41.424 234.635 40.7877C234.874 40.1513 234.993 39.4098 234.993 38.5632C234.993 37.7166 234.874 36.9808 234.635 36.3558C234.402 35.7308 234.056 35.245 233.595 34.8984C233.141 34.5519 232.581 34.3786 231.916 34.3786C231.229 34.3786 230.655 34.5575 230.195 34.9155C229.735 35.2734 229.388 35.7678 229.155 36.3984C228.922 37.0291 228.806 37.7507 228.806 38.5632C228.806 39.3814 228.922 40.1115 229.155 40.7536C229.394 41.3899 229.743 41.8928 230.203 42.2621C230.669 42.6257 231.24 42.8075 231.916 42.8075ZM245.082 45.3729C244.252 45.3729 243.505 45.2252 242.84 44.9297C242.181 44.6286 241.659 44.1854 241.272 43.6002C240.892 43.0149 240.701 42.2933 240.701 41.4354C240.701 40.6967 240.838 40.0859 241.11 39.603C241.383 39.12 241.755 38.7337 242.227 38.4439C242.698 38.1541 243.23 37.9354 243.82 37.7877C244.417 37.6342 245.034 37.5234 245.67 37.4553C246.437 37.3757 247.059 37.3047 247.536 37.2422C248.014 37.174 248.36 37.0717 248.576 36.9354C248.798 36.7933 248.909 36.5746 248.909 36.2791V36.228C248.909 35.5859 248.718 35.0888 248.338 34.7365C247.957 34.3842 247.409 34.2081 246.693 34.2081C245.937 34.2081 245.338 34.3729 244.894 34.7024C244.457 35.032 244.161 35.4212 244.008 35.87L241.127 35.4609C241.355 34.6655 241.73 34.0007 242.252 33.4666C242.775 32.9269 243.414 32.5234 244.17 32.2564C244.926 31.9837 245.761 31.8473 246.676 31.8473C247.306 31.8473 247.934 31.9212 248.559 32.0689C249.184 32.2166 249.755 32.4609 250.272 32.8019C250.789 33.1371 251.204 33.5945 251.517 34.174C251.835 34.7536 251.994 35.478 251.994 36.3473V45.1087H249.028V43.3104H248.926C248.738 43.674 248.474 44.0149 248.133 44.3331C247.798 44.6456 247.374 44.8984 246.863 45.0916C246.357 45.2791 245.764 45.3729 245.082 45.3729ZM245.883 43.1058C246.502 43.1058 247.039 42.9837 247.494 42.7394C247.948 42.4894 248.298 42.1598 248.542 41.7507C248.792 41.3416 248.917 40.8956 248.917 40.4127V38.87C248.82 38.9496 248.656 39.0234 248.423 39.0916C248.195 39.1598 247.94 39.2195 247.656 39.2706C247.372 39.3217 247.09 39.3672 246.812 39.407C246.534 39.4467 246.292 39.4808 246.088 39.5092C245.627 39.5717 245.215 39.674 244.852 39.8161C244.488 39.9581 244.201 40.157 243.991 40.4127C243.781 40.6627 243.676 40.9865 243.676 41.3842C243.676 41.9524 243.883 42.3814 244.298 42.6712C244.713 42.9609 245.241 43.1058 245.883 43.1058ZM256.545 50.0178C256.124 50.0178 255.735 49.9837 255.377 49.9155C255.025 49.853 254.744 49.7791 254.534 49.6939L255.249 47.2905C255.698 47.4212 256.099 47.4837 256.451 47.478C256.803 47.4723 257.113 47.3615 257.38 47.1456C257.653 46.9354 257.883 46.5831 258.07 46.0888L258.335 45.3814L253.588 32.0178H256.86L259.877 41.9041H260.014L263.039 32.0178H266.32L261.079 46.6939C260.835 47.3871 260.511 47.9808 260.107 48.4752C259.704 48.9752 259.21 49.3558 258.624 49.6172C258.045 49.8842 257.352 50.0178 256.545 50.0178ZM289.485 33.5433H286.298C286.207 33.0206 286.039 32.5575 285.795 32.1541C285.551 31.745 285.247 31.3984 284.883 31.1144C284.519 30.8303 284.105 30.6172 283.639 30.4752C283.178 30.3274 282.681 30.2536 282.147 30.2536C281.198 30.2536 280.357 30.4922 279.624 30.9695C278.892 31.4411 278.318 32.1342 277.903 33.049C277.488 33.9581 277.281 35.0689 277.281 36.3814C277.281 37.7166 277.488 38.8416 277.903 39.7564C278.323 40.6655 278.897 41.353 279.624 41.8189C280.357 42.2791 281.195 42.5092 282.139 42.5092C282.661 42.5092 283.15 42.4411 283.605 42.3047C284.065 42.1627 284.477 41.9553 284.84 41.6825C285.21 41.4098 285.519 41.0746 285.769 40.6769C286.025 40.2791 286.201 39.8246 286.298 39.3132L289.485 39.3303C289.366 40.1598 289.107 40.9382 288.71 41.6655C288.318 42.3928 287.803 43.0348 287.167 43.5916C286.531 44.1428 285.786 44.5746 284.934 44.8871C284.082 45.1939 283.136 45.3473 282.096 45.3473C280.562 45.3473 279.193 44.9922 277.988 44.282C276.784 43.5717 275.835 42.5462 275.142 41.2053C274.448 39.8644 274.102 38.2564 274.102 36.3814C274.102 34.5007 274.451 32.8928 275.15 31.5575C275.849 30.2166 276.801 29.1911 278.005 28.4808C279.21 27.7706 280.573 27.4155 282.096 27.4155C283.068 27.4155 283.971 27.5519 284.806 27.8246C285.642 28.0973 286.386 28.4979 287.039 29.0263C287.693 29.549 288.23 30.1911 288.65 30.9524C289.076 31.7081 289.355 32.5717 289.485 33.5433ZM296.012 45.3729C295.182 45.3729 294.435 45.2252 293.77 44.9297C293.111 44.6286 292.588 44.1854 292.202 43.6002C291.821 43.0149 291.631 42.2933 291.631 41.4354C291.631 40.6967 291.767 40.0859 292.04 39.603C292.313 39.12 292.685 38.7337 293.156 38.4439C293.628 38.1541 294.159 37.9354 294.75 37.7877C295.347 37.6342 295.963 37.5234 296.6 37.4553C297.367 37.3757 297.989 37.3047 298.466 37.2422C298.943 37.174 299.29 37.0717 299.506 36.9354C299.727 36.7933 299.838 36.5746 299.838 36.2791V36.228C299.838 35.5859 299.648 35.0888 299.267 34.7365C298.887 34.3842 298.338 34.2081 297.622 34.2081C296.867 34.2081 296.267 34.3729 295.824 34.7024C295.387 35.032 295.091 35.4212 294.938 35.87L292.057 35.4609C292.284 34.6655 292.659 34.0007 293.182 33.4666C293.705 32.9269 294.344 32.5234 295.1 32.2564C295.855 31.9837 296.691 31.8473 297.605 31.8473C298.236 31.8473 298.864 31.9212 299.489 32.0689C300.114 32.2166 300.685 32.4609 301.202 32.8019C301.719 33.1371 302.134 33.5945 302.446 34.174C302.764 34.7536 302.923 35.478 302.923 36.3473V45.1087H299.958V43.3104H299.855C299.668 43.674 299.404 44.0149 299.063 44.3331C298.727 44.6456 298.304 44.8984 297.793 45.0916C297.287 45.2791 296.693 45.3729 296.012 45.3729ZM296.813 43.1058C297.432 43.1058 297.969 42.9837 298.423 42.7394C298.878 42.4894 299.227 42.1598 299.472 41.7507C299.722 41.3416 299.847 40.8956 299.847 40.4127V38.87C299.75 38.9496 299.585 39.0234 299.352 39.0916C299.125 39.1598 298.869 39.2195 298.585 39.2706C298.301 39.3217 298.02 39.3672 297.742 39.407C297.463 39.4467 297.222 39.4808 297.017 39.5092C296.557 39.5717 296.145 39.674 295.781 39.8161C295.418 39.9581 295.131 40.157 294.921 40.4127C294.71 40.6627 294.605 40.9865 294.605 41.3842C294.605 41.9524 294.813 42.3814 295.227 42.6712C295.642 42.9609 296.171 43.1058 296.813 43.1058ZM308.838 41.0007L308.83 37.2763H309.324L314.029 32.0178H317.634L311.847 38.4609H311.208L308.838 41.0007ZM306.026 45.1087V27.6541H309.111V45.1087H306.026ZM314.242 45.1087L309.98 39.1513L312.06 36.978L317.932 45.1087H314.242ZM324.946 45.3644C323.634 45.3644 322.5 45.0916 321.546 44.5462C320.597 43.995 319.867 43.2166 319.355 42.2109C318.844 41.1996 318.588 40.0092 318.588 38.6399C318.588 37.2933 318.844 36.1115 319.355 35.0945C319.872 34.0717 320.594 33.2763 321.52 32.7081C322.446 32.1342 323.534 31.8473 324.784 31.8473C325.591 31.8473 326.352 31.978 327.068 32.2394C327.79 32.495 328.426 32.8928 328.977 33.4325C329.534 33.9723 329.972 34.6598 330.29 35.495C330.608 36.3246 330.767 37.3132 330.767 38.4609V39.407H320.037V37.3274H327.81C327.804 36.7365 327.676 36.2109 327.426 35.7507C327.176 35.2848 326.827 34.9183 326.378 34.6513C325.935 34.3842 325.418 34.2507 324.827 34.2507C324.196 34.2507 323.642 34.4041 323.165 34.7109C322.688 35.0121 322.316 35.4098 322.048 35.9041C321.787 36.3928 321.654 36.9297 321.648 37.5149V39.3303C321.648 40.0916 321.787 40.745 322.066 41.2905C322.344 41.8303 322.733 42.245 323.233 42.5348C323.733 42.8189 324.318 42.9609 324.989 42.9609C325.438 42.9609 325.844 42.8984 326.208 42.7734C326.571 42.6428 326.887 42.4524 327.154 42.2024C327.421 41.9524 327.622 41.6428 327.759 41.2734L330.639 41.5973C330.458 42.3587 330.111 43.0234 329.6 43.5916C329.094 44.1541 328.446 44.5916 327.656 44.9041C326.867 45.2109 325.963 45.3644 324.946 45.3644ZM343.724 35.478L340.911 35.7848C340.832 35.5007 340.693 35.2337 340.494 34.9837C340.301 34.7337 340.039 34.532 339.71 34.3786C339.38 34.2251 338.977 34.1484 338.499 34.1484C337.857 34.1484 337.318 34.2876 336.88 34.5661C336.448 34.8445 336.235 35.2053 336.241 35.6484C336.235 36.0291 336.374 36.3388 336.659 36.5774C336.948 36.8161 337.426 37.0121 338.09 37.1655L340.323 37.6428C341.562 37.9098 342.482 38.3331 343.085 38.9127C343.693 39.4922 343.999 40.2507 344.005 41.1882C343.999 42.0121 343.758 42.7394 343.281 43.37C342.809 43.995 342.153 44.4837 341.312 44.8359C340.471 45.1882 339.505 45.3644 338.414 45.3644C336.812 45.3644 335.522 45.0291 334.545 44.3587C333.568 43.6825 332.985 42.7422 332.798 41.5377L335.806 41.2479C335.943 41.8388 336.232 42.2848 336.676 42.5859C337.119 42.8871 337.695 43.0377 338.406 43.0377C339.139 43.0377 339.727 42.8871 340.17 42.5859C340.619 42.2848 340.843 41.9127 340.843 41.4695C340.843 41.0945 340.698 40.7848 340.409 40.5405C340.124 40.2962 339.681 40.1087 339.079 39.978L336.846 39.5092C335.59 39.2479 334.661 38.8075 334.059 38.1882C333.457 37.5632 333.159 36.7734 333.164 35.8189C333.159 35.0121 333.377 34.3132 333.82 33.7223C334.269 33.1257 334.892 32.6655 335.687 32.3416C336.488 32.0121 337.411 31.8473 338.457 31.8473C339.991 31.8473 341.198 32.174 342.079 32.8274C342.965 33.4808 343.514 34.3644 343.724 35.478Z" fill="white"/>
<path d="M91.1039 69.1087V61.4723H92.5307V62.7152H92.6252C92.7843 62.2943 93.0445 61.9662 93.4057 61.7308C93.767 61.4922 94.1995 61.3729 94.7033 61.3729C95.2137 61.3729 95.6413 61.4922 95.986 61.7308C96.334 61.9695 96.5909 62.2976 96.7566 62.7152H96.8361C97.0184 62.3075 97.3084 61.9827 97.7061 61.7408C98.1039 61.4955 98.5778 61.3729 99.128 61.3729C99.8207 61.3729 100.386 61.59 100.823 62.0242C101.264 62.4583 101.485 63.1129 101.485 63.9879V69.1087H99.9981V64.1271C99.9981 63.6101 99.8572 63.2356 99.5755 63.0036C99.2937 62.7716 98.9573 62.6555 98.5662 62.6555C98.0823 62.6555 97.7061 62.8047 97.4377 63.103C97.1692 63.398 97.035 63.7775 97.035 64.2415V69.1087H95.5534V64.0327C95.5534 63.6184 95.4242 63.2853 95.1657 63.0334C94.9071 62.7815 94.5707 62.6555 94.1564 62.6555C93.8747 62.6555 93.6145 62.7301 93.3759 62.8793C93.1406 63.0251 92.95 63.2289 92.8042 63.4908C92.6616 63.7526 92.5904 64.0559 92.5904 64.4006V69.1087H91.1039ZM105.699 69.2777C105.215 69.2777 104.778 69.1882 104.387 69.0092C103.996 68.8269 103.686 68.5635 103.457 68.2188C103.232 67.8741 103.119 67.4515 103.119 66.951C103.119 66.5201 103.202 66.1655 103.368 65.8871C103.533 65.6087 103.757 65.3883 104.039 65.2259C104.32 65.0635 104.635 64.9408 104.983 64.858C105.331 64.7751 105.686 64.7121 106.047 64.669C106.505 64.616 106.876 64.5729 107.161 64.5398C107.446 64.5033 107.653 64.4453 107.782 64.3658C107.912 64.2862 107.976 64.157 107.976 63.978V63.9432C107.976 63.509 107.854 63.1726 107.608 62.934C107.366 62.6953 107.005 62.576 106.525 62.576C106.024 62.576 105.63 62.687 105.341 62.9091C105.056 63.1278 104.859 63.3715 104.75 63.6399L103.353 63.3217C103.518 62.8577 103.76 62.4832 104.078 62.1982C104.4 61.9098 104.77 61.701 105.187 61.5717C105.605 61.4392 106.044 61.3729 106.505 61.3729C106.81 61.3729 107.133 61.4093 107.474 61.4823C107.819 61.5519 108.14 61.6811 108.439 61.87C108.74 62.059 108.987 62.3291 109.179 62.6804C109.372 63.0284 109.468 63.4808 109.468 64.0377V69.1087H108.016V68.0646H107.956C107.86 68.2569 107.716 68.4458 107.524 68.6314C107.332 68.817 107.085 68.9711 106.783 69.0938C106.481 69.2164 106.12 69.2777 105.699 69.2777ZM106.022 68.0845C106.433 68.0845 106.785 68.0033 107.076 67.8409C107.371 67.6785 107.595 67.4664 107.748 67.2046C107.903 66.9394 107.981 66.656 107.981 66.3544V65.37C107.928 65.4231 107.825 65.4728 107.673 65.5192C107.524 65.5623 107.353 65.6004 107.161 65.6335C106.969 65.6634 106.781 65.6915 106.599 65.718C106.417 65.7412 106.264 65.7611 106.142 65.7777C105.853 65.8142 105.59 65.8755 105.351 65.9617C105.116 66.0478 104.927 66.1721 104.784 66.3345C104.645 66.4936 104.576 66.7057 104.576 66.9709C104.576 67.3388 104.712 67.6172 104.983 67.8061C105.255 67.9917 105.601 68.0845 106.022 68.0845ZM112.815 66.5185L112.805 64.7038H113.063L116.106 61.4723H117.886L114.416 65.1513H114.182L112.815 66.5185ZM111.448 69.1087V58.9269H112.934V69.1087H111.448ZM116.27 69.1087L113.536 65.4794L114.56 64.4403L118.095 69.1087H116.27ZM122.217 69.2628C121.465 69.2628 120.817 69.102 120.273 68.7805C119.733 68.4557 119.316 68 119.021 67.4134C118.729 66.8234 118.583 66.1323 118.583 65.3402C118.583 64.558 118.729 63.8686 119.021 63.272C119.316 62.6754 119.727 62.2098 120.254 61.875C120.784 61.5403 121.404 61.3729 122.113 61.3729C122.544 61.3729 122.961 61.4441 123.366 61.5867C123.77 61.7292 124.133 61.9529 124.455 62.2578C124.776 62.5627 125.03 62.9588 125.215 63.446C125.401 63.9299 125.494 64.5182 125.494 65.2109V65.7379H119.423V64.6243H124.037C124.037 64.2332 123.957 63.8868 123.798 63.5852C123.639 63.2803 123.415 63.04 123.127 62.8644C122.842 62.6887 122.507 62.6009 122.123 62.6009C121.705 62.6009 121.341 62.7036 121.029 62.9091C120.721 63.1113 120.482 63.3764 120.313 63.7046C120.147 64.0294 120.065 64.3823 120.065 64.7635V65.6335C120.065 66.1439 120.154 66.5781 120.333 66.9361C120.515 67.294 120.769 67.5675 121.094 67.7564C121.419 67.942 121.798 68.0348 122.232 68.0348C122.514 68.0348 122.771 67.995 123.003 67.9155C123.235 67.8326 123.435 67.71 123.604 67.5476C123.773 67.3852 123.903 67.1847 123.992 66.946L125.399 67.1996C125.286 67.6139 125.084 67.9768 124.793 68.2884C124.504 68.5966 124.141 68.8369 123.704 69.0092C123.27 69.1783 122.774 69.2628 122.217 69.2628ZM130.967 69.1087V58.9269H134.696C135.419 58.9269 136.017 59.0462 136.491 59.2848C136.965 59.5201 137.319 59.84 137.555 60.2443C137.79 60.6454 137.908 61.0978 137.908 61.6016C137.908 62.0258 137.83 62.3838 137.674 62.6754C137.518 62.9638 137.309 63.1958 137.048 63.3715C136.789 63.5438 136.504 63.6698 136.192 63.7493V63.8487C136.531 63.8653 136.86 63.9747 137.182 64.1769C137.507 64.3757 137.775 64.6591 137.987 65.027C138.199 65.3949 138.305 65.8423 138.305 66.3693C138.305 66.8897 138.183 67.357 137.938 67.7713C137.696 68.1823 137.321 68.5088 136.814 68.7507C136.307 68.9894 135.659 69.1087 134.87 69.1087H130.967ZM132.504 67.7912H134.721C135.457 67.7912 135.984 67.6487 136.302 67.3636C136.62 67.0786 136.779 66.7223 136.779 66.2948C136.779 65.9733 136.698 65.6783 136.536 65.4098C136.373 65.1413 136.141 64.9276 135.839 64.7685C135.541 64.6094 135.187 64.5298 134.776 64.5298H132.504V67.7912ZM132.504 63.3317H134.562C134.906 63.3317 135.216 63.2654 135.491 63.1328C135.77 63.0002 135.99 62.8146 136.153 62.576C136.318 62.3341 136.401 62.049 136.401 61.7209C136.401 61.3 136.254 60.947 135.959 60.6619C135.664 60.3769 135.211 60.2344 134.602 60.2344H132.504V63.3317ZM140.008 69.1087V61.4723H141.495V69.1087H140.008ZM140.759 60.294C140.5 60.294 140.278 60.2079 140.093 60.0355C139.91 59.8599 139.819 59.651 139.819 59.4091C139.819 59.1638 139.91 58.955 140.093 58.7827C140.278 58.607 140.5 58.5192 140.759 58.5192C141.017 58.5192 141.238 58.607 141.42 58.7827C141.606 58.955 141.699 59.1638 141.699 59.4091C141.699 59.651 141.606 59.8599 141.42 60.0355C141.238 60.2079 141.017 60.294 140.759 60.294ZM143.494 69.1087V61.4723H144.931V62.6854H145.011C145.15 62.2744 145.395 61.9512 145.747 61.7159C146.101 61.4773 146.502 61.358 146.95 61.358C147.043 61.358 147.152 61.3613 147.278 61.3679C147.407 61.3745 147.508 61.3828 147.581 61.3928V62.8146C147.521 62.7981 147.415 62.7798 147.263 62.76C147.111 62.7368 146.958 62.7251 146.806 62.7251C146.454 62.7251 146.141 62.7997 145.866 62.9489C145.594 63.0947 145.379 63.2985 145.22 63.5604C145.061 63.8189 144.981 64.1139 144.981 64.4453V69.1087H143.494ZM152.883 61.4723V62.6655H148.712V61.4723H152.883ZM149.831 59.6428H151.317V66.8665C151.317 67.1548 151.36 67.3719 151.447 67.5178C151.533 67.6603 151.644 67.7581 151.78 67.8111C151.919 67.8608 152.07 67.8857 152.232 67.8857C152.351 67.8857 152.456 67.8774 152.545 67.8608C152.635 67.8442 152.704 67.831 152.754 67.821L153.023 69.049C152.936 69.0822 152.814 69.1153 152.655 69.1484C152.496 69.1849 152.297 69.2048 152.058 69.2081C151.667 69.2147 151.302 69.1451 150.964 68.9993C150.626 68.8535 150.353 68.6281 150.144 68.3232C149.935 68.0182 149.831 67.6354 149.831 67.1747V59.6428ZM156.178 64.5746V69.1087H154.692V58.9269H156.158V62.7152H156.253C156.432 62.3042 156.705 61.9778 157.073 61.7358C157.441 61.4939 157.922 61.3729 158.515 61.3729C159.039 61.3729 159.496 61.4806 159.887 61.696C160.281 61.9115 160.586 62.233 160.802 62.6605C161.021 63.0848 161.13 63.6151 161.13 64.2514V69.1087H159.643V64.4304C159.643 63.8703 159.499 63.4361 159.211 63.1278C158.923 62.8163 158.522 62.6605 158.008 62.6605C157.656 62.6605 157.342 62.7351 157.063 62.8842C156.788 63.0334 156.571 63.2521 156.412 63.5405C156.256 63.8255 156.178 64.1702 156.178 64.5746ZM165.972 69.2578C165.356 69.2578 164.806 69.1004 164.322 68.7855C163.841 68.4673 163.463 68.0149 163.188 67.4283C162.916 66.8383 162.781 66.1307 162.781 65.3054C162.781 64.4801 162.918 63.7742 163.193 63.1875C163.472 62.6009 163.853 62.1518 164.337 61.8402C164.821 61.5287 165.369 61.3729 165.982 61.3729C166.456 61.3729 166.837 61.4524 167.126 61.6115C167.417 61.7673 167.643 61.9496 167.802 62.1584C167.964 62.3672 168.09 62.5511 168.18 62.7102H168.269V58.9269H169.756V69.1087H168.304V67.9205H168.18C168.09 68.0829 167.961 68.2685 167.792 68.4773C167.626 68.6861 167.397 68.8684 167.106 69.0242C166.814 69.1799 166.436 69.2578 165.972 69.2578ZM166.3 67.9901C166.728 67.9901 167.089 67.8774 167.384 67.652C167.683 67.4233 167.908 67.1068 168.06 66.7024C168.216 66.2981 168.294 65.8274 168.294 65.2905C168.294 64.7602 168.218 64.2962 168.065 63.8984C167.913 63.5007 167.689 63.1908 167.394 62.9688C167.099 62.7467 166.735 62.6357 166.3 62.6357C165.853 62.6357 165.48 62.7517 165.182 62.9837C164.884 63.2157 164.658 63.5322 164.506 63.9332C164.357 64.3343 164.282 64.7867 164.282 65.2905C164.282 65.8009 164.358 66.26 164.511 66.6676C164.663 67.0753 164.888 67.3984 165.187 67.6371C165.488 67.8724 165.86 67.9901 166.3 67.9901ZM174.1 69.2777C173.616 69.2777 173.178 69.1882 172.787 69.0092C172.396 68.8269 172.086 68.5635 171.857 68.2188C171.632 67.8741 171.519 67.4515 171.519 66.951C171.519 66.5201 171.602 66.1655 171.768 65.8871C171.934 65.6087 172.157 65.3883 172.439 65.2259C172.721 65.0635 173.036 64.9408 173.384 64.858C173.732 64.7751 174.086 64.7121 174.448 64.669C174.905 64.616 175.276 64.5729 175.561 64.5398C175.846 64.5033 176.053 64.4453 176.183 64.3658C176.312 64.2862 176.377 64.157 176.377 63.978V63.9432C176.377 63.509 176.254 63.1726 176.009 62.934C175.767 62.6953 175.405 62.576 174.925 62.576C174.424 62.576 174.03 62.687 173.742 62.9091C173.457 63.1278 173.259 63.3715 173.15 63.6399L171.753 63.3217C171.919 62.8577 172.161 62.4832 172.479 62.1982C172.8 61.9098 173.17 61.701 173.588 61.5717C174.005 61.4392 174.444 61.3729 174.905 61.3729C175.21 61.3729 175.533 61.4093 175.874 61.4823C176.219 61.5519 176.541 61.6811 176.839 61.87C177.141 62.059 177.387 62.3291 177.58 62.6804C177.772 63.0284 177.868 63.4808 177.868 64.0377V69.1087H176.416V68.0646H176.357C176.261 68.2569 176.116 68.4458 175.924 68.6314C175.732 68.817 175.485 68.9711 175.183 69.0938C174.882 69.2164 174.521 69.2777 174.1 69.2777ZM174.423 68.0845C174.834 68.0845 175.185 68.0033 175.477 67.8409C175.772 67.6785 175.995 67.4664 176.148 67.2046C176.304 66.9394 176.382 66.656 176.382 66.3544V65.37C176.329 65.4231 176.226 65.4728 176.073 65.5192C175.924 65.5623 175.753 65.6004 175.561 65.6335C175.369 65.6634 175.182 65.6915 174.999 65.718C174.817 65.7412 174.665 65.7611 174.542 65.7777C174.254 65.8142 173.99 65.8755 173.752 65.9617C173.516 66.0478 173.327 66.1721 173.185 66.3345C173.046 66.4936 172.976 66.7057 172.976 66.9709C172.976 67.3388 173.112 67.6172 173.384 67.8061C173.655 67.9917 174.002 68.0845 174.423 68.0845ZM180.514 71.9723C180.292 71.9723 180.09 71.9541 179.908 71.9176C179.725 71.8845 179.589 71.848 179.5 71.8082L179.858 70.5902C180.13 70.6631 180.372 70.6946 180.584 70.6847C180.796 70.6747 180.983 70.5952 181.146 70.446C181.311 70.2969 181.457 70.0533 181.583 69.7152L181.767 69.2081L178.973 61.4723H180.564L182.498 67.3984H182.577L184.511 61.4723H186.107L182.96 70.1278C182.814 70.5256 182.629 70.862 182.403 71.1371C182.178 71.4155 181.91 71.6243 181.598 71.7635C181.286 71.9027 180.925 71.9723 180.514 71.9723ZM193.227 63.3367L191.879 63.5753C191.823 63.4029 191.733 63.2389 191.611 63.0831C191.491 62.9273 191.329 62.7997 191.124 62.7003C190.918 62.6009 190.661 62.5511 190.353 62.5511C189.932 62.5511 189.581 62.6456 189.299 62.8345C189.017 63.0201 188.876 63.2604 188.876 63.5554C188.876 63.8106 188.971 64.0161 189.16 64.1719C189.349 64.3277 189.654 64.4553 190.075 64.5547L191.288 64.8331C191.99 64.9955 192.514 65.2457 192.859 65.5838C193.203 65.9219 193.376 66.361 193.376 66.9013C193.376 67.3587 193.243 67.7663 192.978 68.1243C192.716 68.4789 192.35 68.7573 191.879 68.9595C191.412 69.1617 190.87 69.2628 190.254 69.2628C189.398 69.2628 188.701 69.0805 188.161 68.7159C187.62 68.348 187.289 67.826 187.166 67.1499L188.603 66.9311C188.692 67.3056 188.876 67.589 189.155 67.7813C189.433 67.9702 189.796 68.0646 190.244 68.0646C190.731 68.0646 191.12 67.9635 191.412 67.7614C191.704 67.5559 191.849 67.3056 191.849 67.0107C191.849 66.772 191.76 66.5715 191.581 66.4091C191.405 66.2467 191.135 66.1241 190.771 66.0412L189.478 65.7578C188.765 65.5954 188.238 65.3369 187.897 64.9823C187.559 64.6276 187.39 64.1785 187.39 63.635C187.39 63.1842 187.516 62.7898 187.768 62.4517C188.02 62.1136 188.368 61.8502 188.812 61.6612C189.256 61.469 189.765 61.3729 190.338 61.3729C191.163 61.3729 191.813 61.5519 192.287 61.9098C192.761 62.2644 193.074 62.7401 193.227 63.3367ZM202.349 61.4723V62.6655H198.034V61.4723H202.349ZM199.217 69.1087V60.5874C199.217 60.1101 199.322 59.714 199.531 59.3992C199.739 59.081 200.016 58.844 200.361 58.6882C200.705 58.5291 201.08 58.4496 201.484 58.4496C201.783 58.4496 202.038 58.4744 202.25 58.5242C202.462 58.5706 202.62 58.6136 202.722 58.6534L202.374 59.8565C202.305 59.8367 202.215 59.8135 202.106 59.7869C201.996 59.7571 201.864 59.7422 201.708 59.7422C201.347 59.7422 201.088 59.8317 200.933 60.0107C200.78 60.1896 200.704 60.4482 200.704 60.7862V69.1087H199.217ZM208.721 65.9418V61.4723H210.212V69.1087H208.75V67.7862H208.671C208.495 68.1939 208.213 68.5336 207.826 68.8054C207.441 69.0739 206.962 69.2081 206.389 69.2081C205.898 69.2081 205.464 69.1004 205.086 68.885C204.712 68.6662 204.417 68.343 204.201 67.9155C203.989 67.4879 203.883 66.9593 203.883 66.3296V61.4723H205.37V66.1506C205.37 66.6709 205.514 67.0852 205.802 67.3935C206.091 67.7017 206.465 67.8558 206.926 67.8558C207.204 67.8558 207.481 67.7862 207.756 67.647C208.034 67.5078 208.265 67.2974 208.447 67.0156C208.633 66.7339 208.724 66.376 208.721 65.9418ZM213.696 64.5746V69.1087H212.209V61.4723H213.636V62.7152H213.731C213.906 62.3109 214.181 61.986 214.556 61.7408C214.934 61.4955 215.409 61.3729 215.983 61.3729C216.503 61.3729 216.959 61.4823 217.35 61.701C217.741 61.9164 218.044 62.2379 218.26 62.6655C218.475 63.093 218.583 63.6217 218.583 64.2514V69.1087H217.096V64.4304C217.096 63.8769 216.952 63.4444 216.664 63.1328C216.376 62.818 215.979 62.6605 215.476 62.6605C215.131 62.6605 214.824 62.7351 214.556 62.8842C214.291 63.0334 214.08 63.2521 213.925 63.5405C213.772 63.8255 213.696 64.1702 213.696 64.5746ZM226.504 69.2777C226.02 69.2777 225.583 69.1882 225.191 69.0092C224.8 68.8269 224.49 68.5635 224.262 68.2188C224.036 67.8741 223.924 67.4515 223.924 66.951C223.924 66.5201 224.007 66.1655 224.172 65.8871C224.338 65.6087 224.562 65.3883 224.843 65.2259C225.125 65.0635 225.44 64.9408 225.788 64.858C226.136 64.7751 226.491 64.7121 226.852 64.669C227.309 64.616 227.681 64.5729 227.966 64.5398C228.251 64.5033 228.458 64.4453 228.587 64.3658C228.716 64.2862 228.781 64.157 228.781 63.978V63.9432C228.781 63.509 228.658 63.1726 228.413 62.934C228.171 62.6953 227.81 62.576 227.329 62.576C226.829 62.576 226.434 62.687 226.146 62.9091C225.861 63.1278 225.664 63.3715 225.554 63.6399L224.157 63.3217C224.323 62.8577 224.565 62.4832 224.883 62.1982C225.205 61.9098 225.574 61.701 225.992 61.5717C226.409 61.4392 226.849 61.3729 227.309 61.3729C227.614 61.3729 227.937 61.4093 228.279 61.4823C228.623 61.5519 228.945 61.6811 229.243 61.87C229.545 62.059 229.792 62.3291 229.984 62.6804C230.176 63.0284 230.272 63.4808 230.272 64.0377V69.1087H228.821V68.0646H228.761C228.665 68.2569 228.521 68.4458 228.328 68.6314C228.136 68.817 227.889 68.9711 227.588 69.0938C227.286 69.2164 226.925 69.2777 226.504 69.2777ZM226.827 68.0845C227.238 68.0845 227.589 68.0033 227.881 67.8409C228.176 67.6785 228.4 67.4664 228.552 67.2046C228.708 66.9394 228.786 66.656 228.786 66.3544V65.37C228.733 65.4231 228.63 65.4728 228.478 65.5192C228.328 65.5623 228.158 65.6004 227.966 65.6335C227.773 65.6634 227.586 65.6915 227.404 65.718C227.221 65.7412 227.069 65.7611 226.946 65.7777C226.658 65.8142 226.395 65.8755 226.156 65.9617C225.921 66.0478 225.732 66.1721 225.589 66.3345C225.45 66.4936 225.38 66.7057 225.38 66.9709C225.38 67.3388 225.516 67.6172 225.788 67.8061C226.06 67.9917 226.406 68.0845 226.827 68.0845ZM235.454 72.1314C234.847 72.1314 234.325 72.0519 233.888 71.8928C233.454 71.7337 233.099 71.5232 232.824 71.2614C232.549 70.9995 232.343 70.7128 232.208 70.4013L233.485 69.8743C233.575 70.0201 233.694 70.1743 233.843 70.3367C233.996 70.5024 234.201 70.6432 234.46 70.7592C234.722 70.8752 235.058 70.9332 235.469 70.9332C236.032 70.9332 236.498 70.7957 236.866 70.5206C237.234 70.2488 237.418 69.8146 237.418 69.218V67.7166H237.323C237.234 67.879 237.105 68.0597 236.936 68.2585C236.77 68.4574 236.541 68.6297 236.249 68.7756C235.958 68.9214 235.578 68.9943 235.111 68.9943C234.508 68.9943 233.964 68.8535 233.48 68.5717C233 68.2867 232.619 67.8674 232.337 67.3139C232.058 66.7571 231.919 66.0727 231.919 65.2607C231.919 64.4486 232.057 63.7526 232.332 63.1726C232.61 62.5926 232.991 62.1484 233.475 61.8402C233.959 61.5287 234.508 61.3729 235.121 61.3729C235.595 61.3729 235.978 61.4524 236.269 61.6115C236.561 61.7673 236.788 61.9496 236.95 62.1584C237.116 62.3672 237.244 62.5511 237.333 62.7102H237.443V61.4723H238.899V69.2777C238.899 69.934 238.747 70.4725 238.442 70.8935C238.137 71.3144 237.724 71.626 237.204 71.8281C236.687 72.0303 236.104 72.1314 235.454 72.1314ZM235.439 67.7614C235.867 67.7614 236.228 67.6619 236.523 67.4631C236.821 67.2609 237.047 66.9725 237.199 66.598C237.355 66.2202 237.433 65.7678 237.433 65.2408C237.433 64.727 237.356 64.2746 237.204 63.8835C237.052 63.4924 236.828 63.1875 236.533 62.9688C236.238 62.7467 235.873 62.6357 235.439 62.6357C234.992 62.6357 234.619 62.7517 234.32 62.9837C234.022 63.2124 233.797 63.5239 233.644 63.9183C233.495 64.3127 233.421 64.7536 233.421 65.2408C233.421 65.7412 233.497 66.1804 233.649 66.5582C233.802 66.9361 234.027 67.2311 234.325 67.4432C234.627 67.6553 234.998 67.7614 235.439 67.7614ZM243.115 69.2777C242.631 69.2777 242.194 69.1882 241.803 69.0092C241.412 68.8269 241.102 68.5635 240.873 68.2188C240.648 67.8741 240.535 67.4515 240.535 66.951C240.535 66.5201 240.618 66.1655 240.784 65.8871C240.949 65.6087 241.173 65.3883 241.455 65.2259C241.736 65.0635 242.051 64.9408 242.399 64.858C242.747 64.7751 243.102 64.7121 243.463 64.669C243.921 64.616 244.292 64.5729 244.577 64.5398C244.862 64.5033 245.069 64.4453 245.198 64.3658C245.328 64.2862 245.392 64.157 245.392 63.978V63.9432C245.392 63.509 245.27 63.1726 245.024 62.934C244.782 62.6953 244.421 62.576 243.941 62.576C243.44 62.576 243.046 62.687 242.757 62.9091C242.472 63.1278 242.275 63.3715 242.166 63.6399L240.769 63.3217C240.934 62.8577 241.176 62.4832 241.494 62.1982C241.816 61.9098 242.186 61.701 242.603 61.5717C243.021 61.4392 243.46 61.3729 243.921 61.3729C244.226 61.3729 244.549 61.4093 244.89 61.4823C245.235 61.5519 245.556 61.6811 245.855 61.87C246.156 62.059 246.403 62.3291 246.595 62.6804C246.788 63.0284 246.884 63.4808 246.884 64.0377V69.1087H245.432V68.0646H245.372C245.276 68.2569 245.132 68.4458 244.94 68.6314C244.748 68.817 244.501 68.9711 244.199 69.0938C243.897 69.2164 243.536 69.2777 243.115 69.2777ZM243.438 68.0845C243.849 68.0845 244.201 68.0033 244.492 67.8409C244.787 67.6785 245.011 67.4664 245.164 67.2046C245.319 66.9394 245.397 66.656 245.397 66.3544V65.37C245.344 65.4231 245.241 65.4728 245.089 65.5192C244.94 65.5623 244.769 65.6004 244.577 65.6335C244.385 65.6634 244.197 65.6915 244.015 65.718C243.833 65.7412 243.68 65.7611 243.558 65.7777C243.269 65.8142 243.006 65.8755 242.767 65.9617C242.532 66.0478 242.343 66.1721 242.2 66.3345C242.061 66.4936 241.992 66.7057 241.992 66.9709C241.992 67.3388 242.128 67.6172 242.399 67.8061C242.671 67.9917 243.017 68.0845 243.438 68.0845ZM248.864 69.1087V61.4723H250.35V69.1087H248.864ZM249.614 60.294C249.356 60.294 249.134 60.2079 248.948 60.0355C248.766 59.8599 248.675 59.651 248.675 59.4091C248.675 59.1638 248.766 58.955 248.948 58.7827C249.134 58.607 249.356 58.5192 249.614 58.5192C249.873 58.5192 250.093 58.607 250.276 58.7827C250.461 58.955 250.554 59.1638 250.554 59.4091C250.554 59.651 250.461 59.8599 250.276 60.0355C250.093 60.2079 249.873 60.294 249.614 60.294ZM253.836 64.5746V69.1087H252.35V61.4723H253.777V62.7152H253.871C254.047 62.3109 254.322 61.986 254.697 61.7408C255.074 61.4955 255.55 61.3729 256.123 61.3729C256.644 61.3729 257.099 61.4823 257.491 61.701C257.882 61.9164 258.185 62.2379 258.4 62.6655C258.616 63.093 258.724 63.6217 258.724 64.2514V69.1087H257.237V64.4304C257.237 63.8769 257.093 63.4444 256.805 63.1328C256.516 62.818 256.12 62.6605 255.616 62.6605C255.272 62.6605 254.965 62.7351 254.697 62.8842C254.431 63.0334 254.221 63.2521 254.065 63.5405C253.913 63.8255 253.836 64.1702 253.836 64.5746Z" fill="#FABF2B"/>
</svg>
