<svg width="74" height="83" viewBox="0 0 74 83" fill="none" xmlns="http://www.w3.org/2000/svg">
<path d="M54.8233 52.9088L50.738 50.4747L48.3872 54.6334C45.5494 59.6087 38.7324 61.468 33.749 58.5557L29.6937 56.1135L27.2831 60.2882C25.8601 62.7606 23.5498 64.5559 20.7958 65.2939C18.6105 65.8794 16.417 65.7157 14.4302 65.0064L18.1959 79.0601C18.4126 79.8687 18.9357 80.5596 19.6503 80.9809C20.3649 81.4021 21.2123 81.5193 22.0063 81.3066L69.9023 68.4729C70.6962 68.2601 71.3715 67.7349 71.7797 67.0128C72.1879 66.2907 72.2956 65.4308 72.0789 64.6222L68.3132 50.5685C66.9473 52.1761 65.1295 53.4147 62.9443 54.0002C60.1902 54.7382 57.2918 54.3385 54.8233 52.9088Z" fill="#FABF2B"/>
<path d="M32.9469 25.5101C36.2697 24.6198 38.1987 21.1623 37.3002 17.8089C36.9898 16.6504 36.4045 15.6637 35.5907 14.9015L28.0458 7.21895L25.3529 17.6447C25.0292 18.7117 25.0158 19.8589 25.3262 21.0173C25.7595 22.6343 26.8058 24.0161 28.2349 24.8587C29.6641 25.7013 31.359 25.9356 32.9469 25.5101ZM53.3584 29.8431L38.3909 33.8536L36.7572 27.7566L30.7702 29.3608L32.4039 35.4579L17.4364 39.4684C15.0547 40.1066 13.0286 41.6822 11.804 43.8486C10.5794 46.015 10.2566 48.5947 10.9065 51.0203L12.1644 55.715C13.0466 59.0074 16.3997 60.9843 19.6327 60.118C21.2492 59.6849 22.5826 58.6741 23.2982 57.2735L28.0242 49.0475L36.0804 53.8485C38.9001 55.5108 42.7617 54.4761 44.3724 51.6266L48.9787 43.4328L57.1546 48.2016C58.5046 49.0489 60.1647 49.2575 61.7513 48.8324C64.9843 47.9661 66.9296 44.5695 66.0474 41.2771L64.7895 36.5824C64.1396 34.1568 62.5701 32.0841 60.4263 30.8203C58.2826 29.5564 55.7402 29.2049 53.3584 29.8431Z" fill="white"/>
<path d="M32.9469 25.5101C36.2697 24.6198 38.1987 21.1623 37.3002 17.8089C36.9898 16.6504 36.4045 15.6637 35.5907 14.9015L28.0458 7.21895L25.3529 17.6447C25.0292 18.7117 25.0158 19.8589 25.3262 21.0173C25.7595 22.6343 26.8058 24.0161 28.2349 24.8587C29.6641 25.7013 31.359 25.9356 32.9469 25.5101ZM53.3584 29.8431L38.3909 33.8536L36.7572 27.7566L30.7702 29.3608L32.4039 35.4579L17.4364 39.4684C15.0547 40.1066 13.0286 41.6822 11.804 43.8486C10.5794 46.015 10.2566 48.5947 10.9065 51.0203L12.1644 55.715C13.0466 59.0074 16.3997 60.9843 19.6327 60.118C21.2492 59.6849 22.5826 58.6741 23.2982 57.2735L28.0242 49.0475L36.0804 53.8485C38.9001 55.5108 42.7617 54.4761 44.3724 51.6266L48.9787 43.4328L57.1546 48.2016C58.5046 49.0489 60.1647 49.2575 61.7513 48.8324C64.9843 47.9661 66.9296 44.5695 66.0474 41.2771L64.7895 36.5824C64.1396 34.1568 62.5701 32.0841 60.4263 30.8203C58.2826 29.5564 55.7402 29.2049 53.3584 29.8431Z" fill="white"/>
<path d="M32.9469 25.5101C36.2697 24.6198 38.1987 21.1623 37.3002 17.8089C36.9898 16.6504 36.4045 15.6637 35.5907 14.9015L28.0458 7.21895L25.3529 17.6447C25.0292 18.7117 25.0158 19.8589 25.3262 21.0173C25.7595 22.6343 26.8058 24.0161 28.2349 24.8587C29.6641 25.7013 31.359 25.9356 32.9469 25.5101Z" fill="#F937C2"/>
<path d="M32.9469 25.5101C36.2697 24.6198 38.1987 21.1623 37.3002 17.8089C36.9898 16.6504 36.4045 15.6637 35.5907 14.9015L28.0458 7.21895L25.3529 17.6447C25.0292 18.7117 25.0158 19.8589 25.3262 21.0173C25.7595 22.6343 26.8058 24.0161 28.2349 24.8587C29.6641 25.7013 31.359 25.9356 32.9469 25.5101Z" fill="#F937C2"/>
</svg>
