<svg width="72" height="72" viewBox="0 0 72 72" fill="none" xmlns="http://www.w3.org/2000/svg">
<path d="M15 45.2C15 49.4 11.6 52.7 7.5 52.7C3.4 52.7 0 49.3 0 45.2C0 41.1 3.4 37.7 7.5 37.7H15V45.2Z" fill="#E01E5A"/>
<path d="M18.8 45.2C18.8 41 22.2 37.7 26.3 37.7C30.4 37.7 33.8 41.1 33.8 45.2V64.1C33.8 68.3 30.4 71.6 26.3 71.6C22.2 71.6 18.8 68.2 18.8 64.1V45.2Z" fill="#E01E5A"/>
<path d="M26.4 15C22.2 15 18.9 11.6 18.9 7.5C18.9 3.4 22.3 0 26.4 0C30.5 0 33.9 3.4 33.9 7.5V15H26.4Z" fill="#36C5F0"/>
<path d="M26.4 18.8C30.6 18.8 33.9 22.2 33.9 26.3C33.9 30.4 30.5 33.8001 26.4 33.8001H7.5C3.3 33.8001 0 30.4 0 26.3C0 22.2 3.4 18.8 7.5 18.8H26.4Z" fill="#36C5F0"/>
<path d="M56.5 26.4C56.5 22.2 59.9 18.9 64 18.9C68.2 18.9 71.5 22.3 71.5 26.4C71.5 30.5 68.1 33.9 64 33.9H56.5V26.4Z" fill="#2EB67D"/>
<path d="M52.8 26.4C52.8 30.6 49.4 33.9 45.3 33.9C41.2 33.9 37.8 30.5 37.8 26.4V7.5C37.8 3.3 41.2 0 45.3 0C49.4 0 52.8 3.4 52.8 7.5V26.4Z" fill="#2EB67D"/>
<path d="M45.2 56.5C49.4 56.5 52.7 59.9 52.7 64C52.7 68.2 49.3 71.5 45.2 71.5C41.1 71.5 37.7 68.1 37.7 64V56.5H45.2Z" fill="#ECB22E"/>
<path d="M45.2 52.8C41 52.8 37.7 49.4 37.7 45.3C37.7 41.2 41.1 37.8 45.2 37.8H64.1C68.3 37.8 71.6 41.2 71.6 45.3C71.6 49.4 68.2 52.8 64.1 52.8H45.2Z" fill="#ECB22E"/>
<path d="M15 45.2C15 49.4 11.6 52.7 7.5 52.7C3.4 52.7 0 49.3 0 45.2C0 41.1 3.4 37.7 7.5 37.7H15V45.2Z" fill="#E01E5A"/>
<path d="M18.8 45.2C18.8 41 22.2 37.7 26.3 37.7C30.4 37.7 33.8 41.1 33.8 45.2V64.1C33.8 68.3 30.4 71.6 26.3 71.6C22.2 71.6 18.8 68.2 18.8 64.1V45.2Z" fill="#E01E5A"/>
<path d="M26.3 15C22.1 15 18.8 11.6 18.8 7.5C18.8 3.4 22.2 0 26.3 0C30.4 0 33.8 3.4 33.8 7.5V15H26.3Z" fill="#36C5F0"/>
<path d="M26.3 18.8C30.5 18.8 33.8 22.2 33.8 26.3C33.8 30.4 30.4 33.8001 26.3 33.8001H7.5C3.3 33.8001 0 30.4 0 26.3C0 22.2 3.4 18.8 7.5 18.8H26.3Z" fill="#36C5F0"/>
<path d="M56.5 26.4C56.5 22.2 59.9 18.9 64 18.9C68.2 18.9 71.5 22.3 71.5 26.4C71.5 30.5 68.1 33.9 64 33.9H56.5V26.4Z" fill="#2EB67D"/>
<path d="M52.7 26.4C52.7 30.6 49.3 33.9 45.2 33.9C41 33.9 37.7 30.5 37.7 26.4V7.5C37.7 3.3 41.1 0 45.2 0C49.4 0 52.7 3.4 52.7 7.5V26.4Z" fill="#2EB67D"/>
<path d="M45.2 56.5C49.4 56.5 52.7 59.9 52.7 64C52.7 68.2 49.3 71.5 45.2 71.5C41 71.5 37.7 68.1 37.7 64V56.5H45.2Z" fill="#ECB22E"/>
<path d="M45.2 52.8C41 52.8 37.7 49.4 37.7 45.3C37.7 41.2 41.1 37.8 45.2 37.8H64.1C68.3 37.8 71.6 41.2 71.6 45.3C71.6 49.4 68.2 52.8 64.1 52.8H45.2Z" fill="#ECB22E"/>
</svg>
